HIERARCHY
ROOT Hips
{
	OFFSET 0.000000 0.000000 0.000000 
	CHANNELS 6 Xposition Yposition Zposition Zrotation Yrotation Xrotation
	JOINT LeftUpLeg
	{
		OFFSET 1.363060 -1.794630 0.839290 
		CHANNELS 3 Zrotation Yrotation Xrotation
		JOINT LeftLeg
		{
			OFFSET 2.448110 -6.726130 0.000000 
			CHANNELS 3 Zrotation Yrotation Xrotation
			JOINT LeftFoot
			{
				OFFSET 2.562200 -7.039590 0.000000 
				CHANNELS 3 Zrotation Yrotation Xrotation
				JOINT LeftToeBase
				{
					OFFSET 0.157640 -0.433110 2.322550 
					CHANNELS 3 Zrotation Yrotation Xrotation
					End Site
					{
						OFFSET 0.000000 0.000000 0.000000 
					}
				}
			}
		}
	}
	JOINT RightUpLeg
	{
		OFFSET -1.305520 -1.794630 0.839290 
		CHANNELS 3 Zrotation Yrotation Xrotation
		JOINT RightLeg
		{
			OFFSET -2.542530 -6.985550 0.000000 
			CHANNELS 3 Zrotation Yrotation Xrotation
			JOINT RightFoot
			{
				OFFSET -2.568260 -7.056230 0.000000 
				CHANNELS 3 Zrotation Yrotation Xrotation
				JOINT RightToeBase
				{
					OFFSET -0.164730 -0.452590 2.363150 
					CHANNELS 3 Zrotation Yrotation Xrotation
					End Site
					{
						OFFSET 0.000000 0.000000 0.000000 
					}
				}
			}
		}
	}
	JOINT Spine
	{
		OFFSET 0.028270 2.035590 -0.193380 
		CHANNELS 3 Zrotation Yrotation Xrotation
		JOINT Spine1
		{
			OFFSET 0.056720 2.048850 -0.042750 
			CHANNELS 3 Zrotation Yrotation Xrotation
			JOINT Neck1
			{
				OFFSET -0.054170 1.746240 0.172020 
				CHANNELS 3 Zrotation Yrotation Xrotation
				JOINT Head
				{
					OFFSET 0.104070 1.761360 -0.123970 
					CHANNELS 3 Zrotation Yrotation Xrotation
					End Site
					{
						OFFSET 0.000000 0.000000 0.000000 
					}
				}
			}
			JOINT LeftArm
			{
				OFFSET 3.362410 1.200890 -0.311210 
				CHANNELS 3 Zrotation Yrotation Xrotation
				JOINT LeftForeArm
				{
					OFFSET 4.983000 -0.000000 -0.000000 
					CHANNELS 3 Zrotation Yrotation Xrotation
					JOINT LeftHand
					{
						OFFSET 3.483560 -0.000000 -0.000000 
						CHANNELS 3 Zrotation Yrotation Xrotation
						JOINT LeftHandIndex1
						{
							OFFSET 0.715260 -0.000000 -0.000000 
							CHANNELS 3 Zrotation Yrotation Xrotation
							End Site
							{
								OFFSET 0.000000 0.000000 0.000000 
							}
						}
					}
				}
			}
			JOINT RightArm
			{
				OFFSET -3.136600 1.374050 -0.404650 
				CHANNELS 3 Zrotation Yrotation Xrotation
				JOINT RightForeArm
				{
					OFFSET -5.241900 -0.000000 -0.000000 
					CHANNELS 3 Zrotation Yrotation Xrotation
					JOINT RightHand
					{
						OFFSET -3.444170 -0.000000 -0.000000 
						CHANNELS 3 Zrotation Yrotation Xrotation
						JOINT RightHandIndex1
						{
							OFFSET -0.622530 -0.000000 -0.000000 
							CHANNELS 3 Zrotation Yrotation Xrotation
							End Site
							{
								OFFSET 0.000000 0.000000 0.000000 
							}
						}
					}
				}
			}
		}
	}
}
MOTION
Frames: 12
Frame Time: 0.041667
-1.388008 18.395317 21.918188 178.423411 1.575618 -149.072074 -42.480877 -26.740098 -24.175702 2.641856 6.425280 14.392036 -2.311838 -14.382954 -30.688917 2.299900 -9.464700 -27.259900 33.950944 37.400023 -36.701656 -2.730131 -12.577546 28.963837 -2.945479 1.823713 -41.842391 -1.539300 7.832200 -22.205500 2.469648 -0.967410 -4.084871 0.405744 -1.622321 16.410759 2.491529 -4.657226 42.281750 -0.486400 -0.082300 8.584600 -106.325060 -2.557460 19.961347 21.932889 -24.896849 -4.836160 -0.550158 0.123564 -0.282234 -7.125000 0.000000 0.000000 101.800278 -4.732850 8.875952 -23.679577 34.135963 -6.747442 0.044783 -0.278645 -3.135614 7.125000 0.000000 0.000000 
-1.394646 18.392458 21.911754 178.389653 1.554508 -149.109169 -42.546823 -26.717675 -24.065759 2.645377 6.401917 14.350178 -2.344126 -14.448456 -30.626871 2.231000 -9.331600 -26.838200 33.801803 37.376446 -36.918241 -2.793308 -12.804777 29.685275 -2.938972 2.079377 -42.061456 -1.310600 7.251600 -20.462800 2.412182 -0.971622 -4.293884 0.358670 -1.603363 16.180317 2.465267 -4.673340 42.657383 -0.491100 -0.059500 8.650600 -106.230946 -2.426093 19.880823 21.939213 -24.894592 -4.833131 -0.546499 0.106846 -0.204991 -7.125000 0.000000 0.000000 101.942995 -5.025611 9.096179 -23.512058 33.947591 -6.660763 0.042616 -0.278383 -3.020943 7.125000 0.000000 0.000000 
-1.400263 18.392458 21.902358 178.326316 1.475490 -149.220149 -42.675622 -26.694002 -23.845871 2.644876 6.355859 14.268248 -2.353919 -14.502868 -30.633436 2.208000 -9.286600 -26.695900 33.795126 37.300824 -36.858938 -2.843197 -12.931792 30.116845 -2.944817 2.178017 -42.167901 -1.265200 7.129800 -20.100400 2.400835 -1.017143 -4.090033 0.352390 -1.647004 16.475303 2.374102 -4.802750 43.185247 -0.519000 -0.120300 8.848800 -106.188827 -2.767068 19.492222 21.903174 -24.860274 -4.802034 -0.531827 0.114024 0.506633 -7.125000 0.000000 0.000000 101.999494 -4.779684 9.254346 -23.205858 33.619901 -6.502180 0.040449 -0.284658 -2.966552 7.125000 0.000000 0.000000 
-1.405472 18.394602 21.893269 178.248486 1.349946 -149.332802 -42.854476 -26.647725 -23.622644 2.645768 6.316188 14.212878 -2.394617 -14.615550 -30.597327 2.232600 -9.334700 -26.847900 33.877780 37.279448 -36.620321 -2.881726 -12.997007 30.306993 -3.025452 1.794581 -42.145705 -1.424100 7.546500 -21.344800 2.402175 -1.158044 -4.266275 0.375456 -1.840384 16.221503 1.891673 -4.566083 43.198722 -0.618800 -0.059300 8.832500 -106.192185 -2.720227 19.039029 21.851417 -24.787007 -4.765683 -0.528102 0.140918 0.886300 -7.125000 0.000000 0.000000 102.017304 -4.902763 9.302489 -22.887170 33.255433 -6.336989 0.039141 -0.289777 -2.500140 7.125000 0.000000 0.000000 
-1.411497 18.395930 21.885303 178.268252 1.220175 -149.415278 -42.934101 -26.445911 -23.476056 2.661381 6.266085 14.132682 -2.514883 -14.864334 -30.457228 2.225000 -9.319700 -26.800700 34.060362 37.260432 -36.411678 -2.903303 -13.036836 30.459682 -3.033350 1.772297 -42.119692 -1.375200 7.421000 -20.968900 2.367073 -1.204512 -4.281851 0.263479 -1.852878 16.256464 1.659102 -4.464211 43.257581 -0.677200 -0.027000 8.847900 -106.124091 -2.851670 18.727945 21.790894 -24.702166 -4.717747 -0.542337 0.164557 1.029559 -7.125000 0.000000 0.000000 102.160748 -4.868281 9.187514 -22.602111 32.945785 -6.196585 0.035272 -0.289788 -1.648722 7.125000 0.000000 0.000000 
-1.418237 18.397053 21.877133 178.351752 1.099667 -149.469290 -42.918171 -26.284113 -23.383484 2.677203 6.221439 14.051790 -2.615081 -15.065138 -30.343615 2.150400 -9.172600 -26.336700 34.343315 37.101956 -36.168529 -2.910234 -13.013446 30.465000 -2.951605 2.064047 -41.956829 -1.257100 7.107800 -20.035000 2.386616 -1.196359 -4.193736 0.188988 -1.846382 16.528728 1.710495 -4.559066 43.190843 -0.685300 -0.066800 8.829300 -106.078394 -3.094184 18.527306 21.738909 -24.632353 -4.675441 -0.554904 0.167362 1.280057 -7.125000 0.000000 0.000000 102.321542 -4.788149 9.128455 -22.430060 32.765236 -6.116831 0.031523 -0.287719 -1.267953 7.125000 0.000000 0.000000 
-1.423446 18.396338 21.869167 178.361562 0.928653 -149.487947 -42.969550 -26.307786 -23.308296 2.678868 6.199817 14.017066 -2.669679 -15.184281 -30.293442 2.194900 -9.260800 -26.614500 34.681627 36.792197 -35.794147 -2.894583 -12.868007 30.103700 -2.864015 2.250309 -41.677757 -1.249400 7.086800 -19.972900 2.535813 -1.269080 -4.413191 0.288986 -1.887733 16.286084 1.581761 -4.673093 43.503899 -0.713500 -0.132700 8.885900 -106.189308 -3.018221 18.224112 21.693138 -24.570132 -4.650395 -0.535503 0.143734 1.444914 -7.125000 0.000000 0.000000 102.309307 -5.098595 9.233590 -22.362374 32.668009 -6.074964 0.030024 -0.285637 -1.350423 7.125000 0.000000 0.000000 
-1.429676 18.389394 21.851703 178.329211 0.737312 -149.511956 -43.151296 -26.365908 -23.065097 2.675082 6.129396 13.853865 -2.684062 -15.211674 -30.210862 2.265700 -9.398900 -27.051400 35.052344 36.518407 -35.295555 -2.861536 -12.645116 29.544624 -2.739197 2.564347 -41.344242 -1.054100 6.528300 -18.325300 2.531576 -1.334685 -4.342298 0.223888 -1.925826 16.556277 1.493664 -4.782486 43.495919 -0.761300 -0.206900 8.911400 -106.195091 -3.225983 17.866344 21.674031 -24.562432 -4.635873 -0.510747 0.139098 1.537096 -7.125000 0.000000 0.000000 102.350104 -4.996492 9.293531 -22.167077 32.446746 -5.975760 0.029441 -0.290214 -1.127517 7.125000 0.000000 0.000000 
-1.458373 18.346296 21.767652 178.444919 0.430499 -149.278197 -43.734683 -26.285195 -22.228702 2.667981 5.782689 13.004189 -2.738607 -15.364665 -30.009502 2.118800 -9.109200 -26.137700 36.114745 35.634002 -34.243086 -2.791917 -12.142215 28.326802 -2.457069 3.495271 -40.875500 -0.812100 5.750800 -16.063100 2.437679 -1.374553 -4.363204 -0.272260 -1.917810 17.595777 1.350327 -4.624168 43.569423 -0.791500 -0.118300 8.967500 -106.142833 -3.097612 17.816768 21.745234 -24.676593 -4.677564 -0.508288 0.150381 1.493072 -7.125000 0.000000 0.000000 102.495280 -5.125179 9.169464 -22.011068 32.267837 -5.900735 0.030704 -0.296102 -0.748362 7.125000 0.000000 0.000000 
-1.471139 18.333020 21.733951 178.435132 0.157737 -149.257712 -44.031005 -26.266621 -21.865551 2.670579 5.665182 12.752631 -2.848855 -15.598912 -29.820523 1.951000 -8.763200 -25.057300 36.772392 34.919503 -33.518565 -2.773816 -11.833378 27.578205 -2.356984 3.768248 -40.635926 -0.856400 5.901600 -16.499200 2.425467 -1.423879 -4.642891 -0.406271 -1.928722 17.425789 1.278013 -4.748475 44.585544 -0.806500 -0.129100 9.244100 -106.113886 -2.694614 17.875437 21.829765 -24.791895 -4.730253 -0.506084 0.146311 1.333309 -7.125000 0.000000 0.000000 102.645316 -5.659617 8.926104 -22.013036 32.272973 -5.903891 0.029253 -0.293240 -0.496724 7.125000 0.000000 0.000000 
-1.473590 18.332713 21.726700 178.515060 -0.138460 -149.140818 -43.843147 -26.423363 -22.076945 2.678699 5.709454 12.857515 -2.970757 -15.814061 -29.713946 1.931400 -8.721700 -24.928600 37.201567 34.524540 -33.227514 -2.752815 -11.671170 27.138118 -2.366243 3.737543 -40.637148 -0.925400 6.128700 -17.158200 2.536799 -1.506041 -4.848630 -0.445454 -1.963328 17.243281 1.106459 -4.487172 45.054524 -0.779700 -0.005700 9.418500 -106.131244 -2.542089 17.769866 21.896450 -24.884865 -4.764339 -0.506760 0.133452 1.177147 -7.125000 0.000000 0.000000 102.714584 -5.933660 8.799172 -21.972654 32.224988 -5.881813 0.027618 -0.291731 -0.416161 7.125000 0.000000 0.000000 
-1.474101 18.332305 21.721287 178.686932 -0.407013 -149.004161 -43.513441 -26.537451 -22.383462 2.690051 5.772019 12.998488 -3.062535 -15.967044 -29.672908 1.960700 -8.783700 -25.121000 37.536407 34.548381 -32.982294 -2.703252 -11.510859 26.635973 -2.468258 3.444825 -40.821229 -0.829500 5.810400 -16.235300 2.782892 -1.573415 -4.699077 -0.379437 -2.004985 17.860765 1.381957 -4.643987 43.412630 -0.760300 -0.154000 8.962600 -106.304100 -2.950148 17.615955 21.942398 -24.967317 -4.777315 -0.529238 0.115113 0.874326 -7.125000 0.000000 0.000000 102.572281 -5.581603 8.778867 -21.813605 32.019193 -5.796113 0.030515 -0.299441 -0.579840 7.125000 0.000000 0.000000 
